<?xml version="1.0" encoding="UTF-8"?>
<svg xmlns="http://www.w3.org/2000/svg" xmlns:xlink="http://www.w3.org/1999/xlink"
     width="1500" height="700" viewBox="0 0 1500 700">
<defs>
</defs>
<style>@media (prefers-color-scheme: dark) {
    .nf-metro-section-label { fill: #d0d0d0; }
    .nf-metro-section-num-circle { fill: #777777; }
    .nf-metro-title { fill: #ffffff; }
}
</style>
<rect x="90.0" y="70.0" width="172.0" height="310.0" rx="8" ry="8" fill="#ededed" stroke="#e6e6e6" stroke-width="1.0" class="nf-metro-section-box" data-section-id="initialisation" data-section-lines="report,review" />
<circle cx="101.0" cy="55.0" r="11" fill="#333333" class="nf-metro-section-num-circle" data-section-id="initialisation" />
<text x="101.0" y="55.0" font-size="12" fill="#ffffff" font-family="'Helvetica Neue', Helvetica, Arial, sans-serif" font-weight="bold" text-anchor="middle" dy="0.3em" data-section-id="initialisation">1</text>
<text x="117.0" y="55.0" font-size="17.0" fill="#666666" font-family="'Helvetica Neue', Helvetica, Arial, sans-serif" font-weight="bold" dy="0.3em" class="nf-metro-section-label" data-section-id="initialisation">Initialisation</text>
<rect x="342.0" y="70.0" width="818.5" height="380.0" rx="8" ry="8" fill="#ededed" stroke="#e6e6e6" stroke-width="1.0" class="nf-metro-section-box" data-section-id="provenance" data-section-lines="report,review" />
<circle cx="353.0" cy="55.0" r="11" fill="#333333" class="nf-metro-section-num-circle" data-section-id="provenance" />
<text x="353.0" y="55.0" font-size="12" fill="#ffffff" font-family="'Helvetica Neue', Helvetica, Arial, sans-serif" font-weight="bold" text-anchor="middle" dy="0.3em" data-section-id="provenance">2</text>
<text x="369.0" y="55.0" font-size="17.0" fill="#666666" font-family="'Helvetica Neue', Helvetica, Arial, sans-serif" font-weight="bold" dy="0.3em" class="nf-metro-section-label" data-section-id="provenance">Provenance report</text>
<rect x="1300.5" y="70.0" width="172.0" height="450.0" rx="8" ry="8" fill="#ededed" stroke="#e6e6e6" stroke-width="1.0" class="nf-metro-section-box" data-section-id="outputs" data-section-lines="report,review" />
<circle cx="1311.5" cy="55.0" r="11" fill="#333333" class="nf-metro-section-num-circle" data-section-id="outputs" />
<text x="1311.5" y="55.0" font-size="12" fill="#ffffff" font-family="'Helvetica Neue', Helvetica, Arial, sans-serif" font-weight="bold" text-anchor="middle" dy="0.3em" data-section-id="outputs">3</text>
<text x="1327.5" y="55.0" font-size="17.0" fill="#666666" font-family="'Helvetica Neue', Helvetica, Arial, sans-serif" font-weight="bold" dy="0.3em" class="nf-metro-section-label" data-section-id="outputs">Outputs</text>
<path d="M176.0,330.0 L207.98909423697083,330.0 Q217.98909423697083,330.0,220.12818944369297,320.23146522263556 L245.84999903024868,202.76853477736444 Q247.98909423697083,193.0,257.9890942369708,193.0 L262.0,193.0" stroke="#F28E2B" stroke-width="4.0" fill="none" stroke-linecap="round" stroke-linejoin="round" class="metro-line-review" data-line-id="review" stroke-dasharray="8,4" />
<path d="M1300.5,123.0 L1304.1812076840388,123.0 Q1314.1812076840388,123.0,1316.2764985713475,132.7780241407741 L1342.08591679673,253.2219758592259 Q1344.1812076840388,263.0,1354.1812076840388,263.0 L1386.5,263.0" stroke="#F28E2B" stroke-width="4.0" fill="none" stroke-linecap="round" stroke-linejoin="round" class="metro-line-review" data-line-id="review" stroke-dasharray="8,4" />
<path d="M342.0,193.0 L345.78737631464895,193.0 Q355.78737631464895,193.0,357.8826672019577,202.7780241407741 L383.6920854273402,323.2219758592259 Q385.78737631464895,333.0,395.78737631464895,333.0 L770.0,333.0" stroke="#F28E2B" stroke-width="4.0" fill="none" stroke-linecap="round" stroke-linejoin="round" class="metro-line-review" data-line-id="review" stroke-dasharray="8,4" />
<path d="M1300.5,123.0 L1304.1812076840388,123.0 Q1314.1812076840388,123.0,1315.595421246412,132.89949493661166 L1342.7669941216657,323.1005050633883 Q1344.1812076840388,333.0,1354.1812076840388,333.0 L1386.5,333.0" stroke="#F28E2B" stroke-width="4.0" fill="none" stroke-linecap="round" stroke-linejoin="round" class="metro-line-review" data-line-id="review" stroke-dasharray="8,4" />
<path d="M262.0,193.0 L272.0,193.0" stroke="#F28E2B" stroke-width="4.0" stroke-linecap="round" class="metro-line-review" data-line-id="review" stroke-dasharray="8,4" />
<path d="M272.0,193.0 L342.0,193.0" stroke="#F28E2B" stroke-width="4.0" stroke-linecap="round" class="metro-line-review" data-line-id="review" stroke-dasharray="8,4" />
<path d="M272.0,193.0 L272.0,193.0 Q282.0,193.0,282.0,203.0 L282.0,465.0 Q282.0,475.0,292.0,475.0 L1233.5,475.0 Q1243.5,475.0,1243.5,465.0 L1243.5,133.0 Q1243.5,123.0,1253.5,123.0 L1300.5,123.0" stroke="#F28E2B" stroke-width="4.0" fill="none" stroke-linecap="round" stroke-linejoin="round" class="metro-line-review" data-line-id="review" stroke-dasharray="8,4" />
<path d="M1160.5,123.0 L1300.5,123.0" stroke="#F28E2B" stroke-width="4.0" stroke-linecap="round" class="metro-line-review" data-line-id="review" stroke-dasharray="8,4" />
<path d="M770.0,333.0 L978.5,333.0 Q988.5,333.0,990.5952908873087,323.2219758592259 L1016.4047091126913,202.7780241407741 Q1018.5,193.0,1028.5,193.0 L1038.5,193.0" stroke="#F28E2B" stroke-width="4.0" fill="none" stroke-linecap="round" stroke-linejoin="round" class="metro-line-review" data-line-id="review" stroke-dasharray="8,4" />
<path d="M1038.5,193.0 L1048.5,193.0 Q1058.5,193.0,1062.4391929857916,183.80854969981942 L1084.5608070142084,132.19145030018058 Q1088.5,123.0,1098.5,123.0 L1160.5,123.0" stroke="#F28E2B" stroke-width="4.0" fill="none" stroke-linecap="round" stroke-linejoin="round" class="metro-line-review" data-line-id="review" stroke-dasharray="8,4" />
<path d="M464.0,120.0 L653.5,120.0 Q663.5,120.0,667.4391929857917,129.19145030018058 L689.5608070142083,180.80854969981942 Q693.5,190.0,703.5,190.0 L770.0,190.0" stroke="#24B064" stroke-width="4.0" fill="none" stroke-linecap="round" stroke-linejoin="round" class="metro-line-report" data-line-id="report" />
<path d="M464.0,190.0 L521.5,190.0 Q531.5,190.0,533.5952908873087,199.7780241407741 L559.4047091126913,320.2219758592259 Q561.5,330.0,571.5,330.0 L770.0,330.0" stroke="#24B064" stroke-width="4.0" fill="none" stroke-linecap="round" stroke-linejoin="round" class="metro-line-report" data-line-id="report" />
<path d="M464.0,190.0 L770.0,190.0" stroke="#24B064" stroke-width="4.0" stroke-linecap="round" class="metro-line-report" data-line-id="report" />
<path d="M770.0,330.0 L787.0,330.0 Q797.0,330.0,798.4142135623731,320.1005050633883 L825.5857864376269,129.89949493661166 Q827.0,120.0,837.0,120.0 L1038.5,120.0" stroke="#24B064" stroke-width="4.0" fill="none" stroke-linecap="round" stroke-linejoin="round" class="metro-line-report" data-line-id="report" />
<path d="M770.0,190.0 L967.0,190.0 Q977.0,190.0,980.9391929857917,180.80854969981942 L1003.0608070142083,129.19145030018058 Q1007.0,120.0,1017.0,120.0 L1038.5,120.0" stroke="#24B064" stroke-width="4.0" fill="none" stroke-linecap="round" stroke-linejoin="round" class="metro-line-report" data-line-id="report" />
<path d="M464.0,190.0 L521.5,190.0 Q531.5,190.0,532.9142135623731,199.89949493661166 L560.0857864376269,390.1005050633883 Q561.5,400.0,571.5,400.0 L770.0,400.0" stroke="#24B064" stroke-width="4.0" fill="none" stroke-linecap="round" stroke-linejoin="round" class="metro-line-report" data-line-id="report" />
<path d="M176.0,120.0 L207.0,120.0 Q217.0,120.0,220.93919298579166,129.19145030018058 L243.06080701420834,180.80854969981942 Q247.0,190.0,257.0,190.0 L262.0,190.0" stroke="#24B064" stroke-width="4.0" fill="none" stroke-linecap="round" stroke-linejoin="round" class="metro-line-report" data-line-id="report" />
<path d="M342.0,190.0 L464.0,190.0" stroke="#24B064" stroke-width="4.0" stroke-linecap="round" class="metro-line-report" data-line-id="report" />
<path d="M342.0,190.0 L348.21262368535105,190.0 Q358.21262368535105,190.0,360.3079145726598,199.7780241407741 L386.1173327980423,320.2219758592259 Q388.21262368535105,330.0,398.21262368535105,330.0 L770.0,330.0" stroke="#24B064" stroke-width="4.0" fill="none" stroke-linecap="round" stroke-linejoin="round" class="metro-line-report" data-line-id="report" />
<path d="M176.0,190.0 L262.0,190.0" stroke="#24B064" stroke-width="4.0" stroke-linecap="round" class="metro-line-report" data-line-id="report" />
<path d="M342.0,190.0 L347.0,190.0 Q357.0,190.0,360.9391929857917,180.80854969981942 L383.0608070142083,129.19145030018058 Q387.0,120.0,397.0,120.0 L464.0,120.0" stroke="#24B064" stroke-width="4.0" fill="none" stroke-linecap="round" stroke-linejoin="round" class="metro-line-report" data-line-id="report" />
<path d="M176.0,260.0 L206.01090576302917,260.0 Q216.01090576302917,260.0,219.95009874882084,250.80854969981942 L242.0717127772375,199.19145030018058 Q246.01090576302917,190.0,256.0109057630292,190.0 L262.0,190.0" stroke="#24B064" stroke-width="4.0" fill="none" stroke-linecap="round" stroke-linejoin="round" class="metro-line-report" data-line-id="report" />
<path d="M464.0,190.0 L521.5,190.0 Q531.5,190.0,535.4391929857917,180.80854969981942 L557.5608070142083,129.19145030018058 Q561.5,120.0,571.5,120.0 L1160.5,120.0" stroke="#24B064" stroke-width="4.0" fill="none" stroke-linecap="round" stroke-linejoin="round" class="metro-line-report" data-line-id="report" />
<path d="M1300.5,120.0 L1386.5,120.0" stroke="#24B064" stroke-width="4.0" stroke-linecap="round" class="metro-line-report" data-line-id="report" />
<path d="M1038.5,120.0 L1160.5,120.0" stroke="#24B064" stroke-width="4.0" stroke-linecap="round" class="metro-line-report" data-line-id="report" />
<path d="M1300.5,120.0 L1306.1593961579806,120.0 Q1316.1593961579806,120.0,1320.0985891437722,129.19145030018058 L1342.220203172189,180.80854969981942 Q1346.1593961579806,190.0,1356.1593961579806,190.0 L1386.5,190.0" stroke="#24B064" stroke-width="4.0" fill="none" stroke-linecap="round" stroke-linejoin="round" class="metro-line-report" data-line-id="report" />
<path d="M770.0,330.0 L787.0,330.0 Q797.0,330.0,798.4142135623731,320.1005050633883 L825.5857864376269,129.89949493661166 Q827.0,120.0,837.0,120.0 L1160.5,120.0" stroke="#24B064" stroke-width="4.0" fill="none" stroke-linecap="round" stroke-linejoin="round" class="metro-line-report" data-line-id="report" />
<path d="M1300.5,120.0 L1306.1593961579806,120.0 Q1316.1593961579806,120.0,1317.5736097203537,129.89949493661166 L1344.7451825956075,320.1005050633883 Q1346.1593961579806,330.0,1356.1593961579806,330.0 L1386.5,330.0" stroke="#24B064" stroke-width="4.0" fill="none" stroke-linecap="round" stroke-linejoin="round" class="metro-line-report" data-line-id="report" />
<path d="M770.0,400.0 L1105.5,400.0 Q1115.5,400.0,1116.5653312363427,390.05690846080194 L1144.4346687636573,129.9430915391981 Q1145.5,120.0,1155.5,120.0 L1160.5,120.0" stroke="#24B064" stroke-width="4.0" fill="none" stroke-linecap="round" stroke-linejoin="round" class="metro-line-report" data-line-id="report" />
<path d="M1300.5,120.0 L1306.1593961579806,120.0 Q1316.1593961579806,120.0,1317.2247273943233,129.9430915391981 L1345.094064921638,390.05690846080194 Q1346.1593961579806,400.0,1356.1593961579806,400.0 L1386.5,400.0" stroke="#24B064" stroke-width="4.0" fill="none" stroke-linecap="round" stroke-linejoin="round" class="metro-line-report" data-line-id="report" />
<path d="M1300.5,120.0 L1306.1593961579806,120.0 Q1316.1593961579806,120.0,1317.013407571445,129.96346649041752 L1345.3053847445162,460.0365335095825 Q1346.1593961579806,470.0,1356.1593961579806,470.0 L1386.5,470.0" stroke="#24B064" stroke-width="4.0" fill="none" stroke-linecap="round" stroke-linejoin="round" class="metro-line-report" data-line-id="report" />
<path d="M262.0,190.0 L272.0,190.0" stroke="#24B064" stroke-width="4.0" stroke-linecap="round" class="metro-line-report" data-line-id="report" />
<path d="M272.0,190.0 L342.0,190.0" stroke="#24B064" stroke-width="4.0" stroke-linecap="round" class="metro-line-report" data-line-id="report" />
<path d="M1160.5,120.0 L1300.5,120.0" stroke="#24B064" stroke-width="4.0" stroke-linecap="round" class="metro-line-report" data-line-id="report" />
<rect x="170.0" y="114.0" width="12.0" height="12.0" fill="#ffffff" stroke="#333333" stroke-width="2.0" class="nf-metro-station" data-station-id="samplesheet" data-station-lines="report" data-station-label="samplesheet" data-section-id="initialisation" data-section-name="Initialisation" />
<g data-station-id="samplesheet">
<path d="M138.0,104.0 L156.0,104.0 L164.0,112.0 L164.0,134.0 Q164.0,136.0,162.0,136.0 L138.0,136.0 Q136.0,136.0,136.0,134.0 L136.0,106.0 Q136.0,104.0,138.0,104.0 Z" fill="#ffffff" stroke="#333333" stroke-width="1.5" stroke-linejoin="round" />
<path d="M156.0,104.0 L156.0,112.0 L164.0,112.0 Z" fill="#333333" opacity="0.15" stroke="none" />
<path d="M156.0,104.0 L156.0,112.0 L164.0,112.0" fill="none" stroke="#333333" stroke-width="0.8999999999999999" />
<text x="150.0" y="121.2" font-size="7.5" fill="#000000" font-family="'Helvetica Neue', Helvetica, Arial, sans-serif" font-weight="bold" text-anchor="middle" dy="0.3em">CSV</text>
<text x="150.0" y="140.0" font-size="8.4" fill="#333333" font-family="'Helvetica Neue', Helvetica, Arial, sans-serif" font-weight="bold" text-anchor="middle" dominant-baseline="hanging">Samplesheet</text>
</g>
<rect x="170.0" y="184.0" width="12.0" height="12.0" fill="#ffffff" stroke="#333333" stroke-width="2.0" class="nf-metro-station" data-station-id="custom_report" data-station-lines="report" data-station-label="custom_report" data-section-id="initialisation" data-section-name="Initialisation" />
<g data-station-id="custom_report">
<path d="M138.0,174.0 L156.0,174.0 L164.0,182.0 L164.0,204.0 Q164.0,206.0,162.0,206.0 L138.0,206.0 Q136.0,206.0,136.0,204.0 L136.0,176.0 Q136.0,174.0,138.0,174.0 Z" fill="#ffffff" stroke="#333333" stroke-width="1.5" stroke-linejoin="round" />
<path d="M156.0,174.0 L156.0,182.0 L164.0,182.0 Z" fill="#333333" opacity="0.15" stroke="none" />
<path d="M156.0,174.0 L156.0,182.0 L164.0,182.0" fill="none" stroke="#333333" stroke-width="0.8999999999999999" />
<text x="150.0" y="191.2" font-size="7.5" fill="#000000" font-family="'Helvetica Neue', Helvetica, Arial, sans-serif" font-weight="bold" text-anchor="middle" dy="0.3em">QMD</text>
<text x="150.0" y="210.0" font-size="8.4" fill="#333333" font-family="'Helvetica Neue', Helvetica, Arial, sans-serif" font-weight="bold" text-anchor="middle" dominant-baseline="hanging">Custom report</text>
</g>
<rect x="170.0" y="254.0" width="12.0" height="12.0" fill="#ffffff" stroke="#333333" stroke-width="2.0" class="nf-metro-station" data-station-id="custom_config" data-station-lines="report" data-station-label="custom_config" data-section-id="initialisation" data-section-name="Initialisation" />
<g data-station-id="custom_config">
<path d="M138.0,244.0 L156.0,244.0 L164.0,252.0 L164.0,274.0 Q164.0,276.0,162.0,276.0 L138.0,276.0 Q136.0,276.0,136.0,274.0 L136.0,246.0 Q136.0,244.0,138.0,244.0 Z" fill="#ffffff" stroke="#333333" stroke-width="1.5" stroke-linejoin="round" />
<path d="M156.0,244.0 L156.0,252.0 L164.0,252.0 Z" fill="#333333" opacity="0.15" stroke="none" />
<path d="M156.0,244.0 L156.0,252.0 L164.0,252.0" fill="none" stroke="#333333" stroke-width="0.8999999999999999" />
<text x="150.0" y="261.2" font-size="7.5" fill="#000000" font-family="'Helvetica Neue', Helvetica, Arial, sans-serif" font-weight="bold" text-anchor="middle" dy="0.3em">CONF</text>
<text x="150.0" y="280.0" font-size="8.4" fill="#333333" font-family="'Helvetica Neue', Helvetica, Arial, sans-serif" font-weight="bold" text-anchor="middle" dominant-baseline="hanging">Custom config</text>
</g>
<rect x="170.0" y="324.0" width="12.0" height="12.0" fill="#ffffff" stroke="#333333" stroke-width="2.0" class="nf-metro-station" data-station-id="review_document" data-station-lines="review" data-station-label="review_document" data-section-id="initialisation" data-section-name="Initialisation" />
<g data-station-id="review_document">
<path d="M138.0,314.0 L156.0,314.0 L164.0,322.0 L164.0,344.0 Q164.0,346.0,162.0,346.0 L138.0,346.0 Q136.0,346.0,136.0,344.0 L136.0,316.0 Q136.0,314.0,138.0,314.0 Z" fill="#ffffff" stroke="#333333" stroke-width="1.5" stroke-linejoin="round" />
<path d="M156.0,314.0 L156.0,322.0 L164.0,322.0 Z" fill="#333333" opacity="0.15" stroke="none" />
<path d="M156.0,314.0 L156.0,322.0 L164.0,322.0" fill="none" stroke="#333333" stroke-width="0.8999999999999999" />
<text x="150.0" y="331.2" font-size="7.5" fill="#000000" font-family="'Helvetica Neue', Helvetica, Arial, sans-serif" font-weight="bold" text-anchor="middle" dy="0.3em">FILE</text>
<text x="150.0" y="350.0" font-size="8.4" fill="#333333" font-family="'Helvetica Neue', Helvetica, Arial, sans-serif" font-weight="bold" text-anchor="middle" dominant-baseline="hanging">--document optional</text>
</g>
<rect x="458.0" y="114.0" width="12.0" height="12.0" rx="6.0" ry="6.0" fill="#ffffff" stroke="#333333" stroke-width="2.0" class="nf-metro-station" data-station-id="quartoinspect" data-station-lines="report" data-station-label="QUARTO_INSPECT" data-section-id="provenance" data-section-name="Provenance report" />
<rect x="458.0" y="184.0" width="12.0" height="12.0" rx="6.0" ry="6.0" fill="#ffffff" stroke="#333333" stroke-width="2.0" class="nf-metro-station" data-station-id="quartonotebook" data-station-lines="report" data-station-label="QUARTO_NOTEBOOK" data-section-id="provenance" data-section-name="Provenance report" />
<rect x="764.0" y="324.0" width="12.0" height="15.0" rx="6.0" ry="6.0" fill="#ffffff" stroke="#333333" stroke-width="2.0" class="nf-metro-station" data-station-id="md5sum" data-station-lines="report,review" data-station-label="MD5SUM" data-section-id="provenance" data-section-name="Provenance report" />
<rect x="764.0" y="184.0" width="12.0" height="12.0" rx="6.0" ry="6.0" fill="#ffffff" stroke="#333333" stroke-width="2.0" class="nf-metro-station" data-station-id="reportenvironment" data-station-lines="report" data-station-label="REPORTENVIRONMENT" data-section-id="provenance" data-section-name="Provenance report" />
<rect x="1032.5" y="114.0" width="12.0" height="12.0" rx="6.0" ry="6.0" fill="#ffffff" stroke="#333333" stroke-width="2.0" class="nf-metro-station" data-station-id="multiqc" data-station-lines="report" data-station-label="MULTIQC" data-section-id="provenance" data-section-name="Provenance report" />
<rect x="764.0" y="394.0" width="12.0" height="12.0" rx="6.0" ry="6.0" fill="#ffffff" stroke="#333333" stroke-width="2.0" class="nf-metro-station" data-station-id="nfprov" data-station-lines="report" data-station-label="nf-prov plugin" data-section-id="provenance" data-section-name="Provenance report" />
<rect x="1380.5" y="114.0" width="12.0" height="12.0" fill="#ffffff" stroke="#333333" stroke-width="2.0" class="nf-metro-station" data-station-id="quarto_report" data-station-lines="report" data-station-label="quarto_report" data-section-id="outputs" data-section-name="Outputs" />
<g data-station-id="quarto_report">
<path d="M1400.5,104.0 L1418.5,104.0 L1426.5,112.0 L1426.5,134.0 Q1426.5,136.0,1424.5,136.0 L1400.5,136.0 Q1398.5,136.0,1398.5,134.0 L1398.5,106.0 Q1398.5,104.0,1400.5,104.0 Z" fill="#ffffff" stroke="#333333" stroke-width="1.5" stroke-linejoin="round" />
<path d="M1418.5,104.0 L1418.5,112.0 L1426.5,112.0 Z" fill="#333333" opacity="0.15" stroke="none" />
<path d="M1418.5,104.0 L1418.5,112.0 L1426.5,112.0" fill="none" stroke="#333333" stroke-width="0.8999999999999999" />
<text x="1412.5" y="121.2" font-size="7.5" fill="#000000" font-family="'Helvetica Neue', Helvetica, Arial, sans-serif" font-weight="bold" text-anchor="middle" dy="0.3em">HTML</text>
<text x="1412.5" y="140.0" font-size="8.4" fill="#333333" font-family="'Helvetica Neue', Helvetica, Arial, sans-serif" font-weight="bold" text-anchor="middle" dominant-baseline="hanging">Quarto report</text>
</g>
<rect x="1380.5" y="184.0" width="12.0" height="12.0" fill="#ffffff" stroke="#333333" stroke-width="2.0" class="nf-metro-station" data-station-id="multiqc_report" data-station-lines="report" data-station-label="multiqc_report" data-section-id="outputs" data-section-name="Outputs" />
<g data-station-id="multiqc_report">
<path d="M1400.5,174.0 L1418.5,174.0 L1426.5,182.0 L1426.5,204.0 Q1426.5,206.0,1424.5,206.0 L1400.5,206.0 Q1398.5,206.0,1398.5,204.0 L1398.5,176.0 Q1398.5,174.0,1400.5,174.0 Z" fill="#ffffff" stroke="#333333" stroke-width="1.5" stroke-linejoin="round" />
<path d="M1418.5,174.0 L1418.5,182.0 L1426.5,182.0 Z" fill="#333333" opacity="0.15" stroke="none" />
<path d="M1418.5,174.0 L1418.5,182.0 L1426.5,182.0" fill="none" stroke="#333333" stroke-width="0.8999999999999999" />
<text x="1412.5" y="191.2" font-size="7.5" fill="#000000" font-family="'Helvetica Neue', Helvetica, Arial, sans-serif" font-weight="bold" text-anchor="middle" dy="0.3em">HTML</text>
<text x="1412.5" y="210.0" font-size="8.4" fill="#333333" font-family="'Helvetica Neue', Helvetica, Arial, sans-serif" font-weight="bold" text-anchor="middle" dominant-baseline="hanging">MultiQC report</text>
</g>
<rect x="1380.5" y="257.0" width="12.0" height="12.0" fill="#ffffff" stroke="#333333" stroke-width="2.0" class="nf-metro-station" data-station-id="review_output" data-station-lines="review" data-station-label="review_output" data-section-id="outputs" data-section-name="Outputs" />
<g data-station-id="review_output">
<path d="M1400.5,247.0 L1418.5,247.0 L1426.5,255.0 L1426.5,277.0 Q1426.5,279.0,1424.5,279.0 L1400.5,279.0 Q1398.5,279.0,1398.5,277.0 L1398.5,249.0 Q1398.5,247.0,1400.5,247.0 Z" fill="#ffffff" stroke="#333333" stroke-width="1.5" stroke-linejoin="round" />
<path d="M1418.5,247.0 L1418.5,255.0 L1426.5,255.0 Z" fill="#333333" opacity="0.15" stroke="none" />
<path d="M1418.5,247.0 L1418.5,255.0 L1426.5,255.0" fill="none" stroke="#333333" stroke-width="0.8999999999999999" />
<text x="1412.5" y="264.2" font-size="7.5" fill="#000000" font-family="'Helvetica Neue', Helvetica, Arial, sans-serif" font-weight="bold" text-anchor="middle" dy="0.3em">FILE</text>
<text x="1412.5" y="283.0" font-size="8.4" fill="#333333" font-family="'Helvetica Neue', Helvetica, Arial, sans-serif" font-weight="bold" text-anchor="middle" dominant-baseline="hanging">Review document</text>
</g>
<rect x="1380.5" y="324.0" width="12.0" height="15.0" fill="#ffffff" stroke="#333333" stroke-width="2.0" class="nf-metro-station" data-station-id="checksums" data-station-lines="report,review" data-station-label="checksums" data-section-id="outputs" data-section-name="Outputs" />
<g data-station-id="checksums">
<path d="M1400.5,315.5 L1418.5,315.5 L1426.5,323.5 L1426.5,345.5 Q1426.5,347.5,1424.5,347.5 L1400.5,347.5 Q1398.5,347.5,1398.5,345.5 L1398.5,317.5 Q1398.5,315.5,1400.5,315.5 Z" fill="#ffffff" stroke="#333333" stroke-width="1.5" stroke-linejoin="round" />
<path d="M1418.5,315.5 L1418.5,323.5 L1426.5,323.5 Z" fill="#333333" opacity="0.15" stroke="none" />
<path d="M1418.5,315.5 L1418.5,323.5 L1426.5,323.5" fill="none" stroke="#333333" stroke-width="0.8999999999999999" />
<text x="1412.5" y="332.7" font-size="7.5" fill="#000000" font-family="'Helvetica Neue', Helvetica, Arial, sans-serif" font-weight="bold" text-anchor="middle" dy="0.3em">MD5</text>
<text x="1412.5" y="351.5" font-size="8.4" fill="#333333" font-family="'Helvetica Neue', Helvetica, Arial, sans-serif" font-weight="bold" text-anchor="middle" dominant-baseline="hanging">Checksums</text>
</g>
<rect x="1380.5" y="394.0" width="12.0" height="12.0" fill="#ffffff" stroke="#333333" stroke-width="2.0" class="nf-metro-station" data-station-id="bco" data-station-lines="report" data-station-label="bco" data-section-id="outputs" data-section-name="Outputs" />
<g data-station-id="bco">
<path d="M1400.5,384.0 L1418.5,384.0 L1426.5,392.0 L1426.5,414.0 Q1426.5,416.0,1424.5,416.0 L1400.5,416.0 Q1398.5,416.0,1398.5,414.0 L1398.5,386.0 Q1398.5,384.0,1400.5,384.0 Z" fill="#ffffff" stroke="#333333" stroke-width="1.5" stroke-linejoin="round" />
<path d="M1418.5,384.0 L1418.5,392.0 L1426.5,392.0 Z" fill="#333333" opacity="0.15" stroke="none" />
<path d="M1418.5,384.0 L1418.5,392.0 L1426.5,392.0" fill="none" stroke="#333333" stroke-width="0.8999999999999999" />
<text x="1412.5" y="401.2" font-size="7.5" fill="#000000" font-family="'Helvetica Neue', Helvetica, Arial, sans-serif" font-weight="bold" text-anchor="middle" dy="0.3em">JSON</text>
<text x="1412.5" y="420.0" font-size="8.4" fill="#333333" font-family="'Helvetica Neue', Helvetica, Arial, sans-serif" font-weight="bold" text-anchor="middle" dominant-baseline="hanging">BCO</text>
</g>
<rect x="1380.5" y="464.0" width="12.0" height="12.0" fill="#ffffff" stroke="#333333" stroke-width="2.0" class="nf-metro-station" data-station-id="rocrate" data-station-lines="report" data-station-label="rocrate" data-section-id="outputs" data-section-name="Outputs" />
<g data-station-id="rocrate">
<path d="M1400.5,454.0 L1418.5,454.0 L1426.5,462.0 L1426.5,484.0 Q1426.5,486.0,1424.5,486.0 L1400.5,486.0 Q1398.5,486.0,1398.5,484.0 L1398.5,456.0 Q1398.5,454.0,1400.5,454.0 Z" fill="#ffffff" stroke="#333333" stroke-width="1.5" stroke-linejoin="round" />
<path d="M1418.5,454.0 L1418.5,462.0 L1426.5,462.0 Z" fill="#333333" opacity="0.15" stroke="none" />
<path d="M1418.5,454.0 L1418.5,462.0 L1426.5,462.0" fill="none" stroke="#333333" stroke-width="0.8999999999999999" />
<text x="1412.5" y="471.2" font-size="7.5" fill="#000000" font-family="'Helvetica Neue', Helvetica, Arial, sans-serif" font-weight="bold" text-anchor="middle" dy="0.3em">JSON</text>
<text x="1412.5" y="490.0" font-size="8.4" fill="#333333" font-family="'Helvetica Neue', Helvetica, Arial, sans-serif" font-weight="bold" text-anchor="middle" dominant-baseline="hanging">RO-Crate</text>
</g>
<text x="464.0" y="106.0" font-size="14.0" fill="#333333" font-family="'Helvetica Neue', Helvetica, Arial, sans-serif" font-weight="bold" text-anchor="middle" dominant-baseline="auto" data-station-id="quartoinspect" class="nf-metro-station-label">QUARTO_INSPECT</text>
<text x="464.0" y="176.0" font-size="14.0" fill="#333333" font-family="'Helvetica Neue', Helvetica, Arial, sans-serif" font-weight="bold" text-anchor="middle" dominant-baseline="auto" data-station-id="quartonotebook" class="nf-metro-station-label">QUARTO_NOTEBOOK</text>
<text x="770.0" y="201.0" font-size="14.0" fill="#333333" font-family="'Helvetica Neue', Helvetica, Arial, sans-serif" font-weight="bold" text-anchor="middle" dominant-baseline="hanging" data-station-id="reportenvironment" class="nf-metro-station-label">REPORTENVIRONMENT</text>
<text x="770.0" y="344.0" font-size="14.0" fill="#333333" font-family="'Helvetica Neue', Helvetica, Arial, sans-serif" font-weight="bold" text-anchor="middle" dominant-baseline="hanging" data-station-id="md5sum" class="nf-metro-station-label">MD5SUM</text>
<text x="770.0" y="411.0" font-size="14.0" fill="#333333" font-family="'Helvetica Neue', Helvetica, Arial, sans-serif" font-weight="bold" text-anchor="middle" dominant-baseline="hanging" data-station-id="nfprov" class="nf-metro-station-label">nf-prov plugin</text>
<text x="1038.5" y="106.0" font-size="14.0" fill="#333333" font-family="'Helvetica Neue', Helvetica, Arial, sans-serif" font-weight="bold" text-anchor="middle" dominant-baseline="auto" data-station-id="multiqc" class="nf-metro-station-label">MULTIQC</text>
<rect x="90.0" y="550.0" width="271.20000000000005" height="72.0" rx="6" ry="6" fill="rgba(255, 255, 255, 0.8)" />
<path d="M102.0,574.0 L126.0,574.0" stroke="#24B064" stroke-width="4.0" stroke-linecap="round" />
<text x="138.0" y="574.0" font-size="16.0" fill="#333333" font-family="'Helvetica Neue', Helvetica, Arial, sans-serif" dy="0.3em">Provenance report</text>
<path d="M102.0,598.0 L126.0,598.0" stroke="#F28E2B" stroke-width="4.0" stroke-linecap="round" stroke-dasharray="8,4" />
<text x="138.0" y="598.0" font-size="16.0" fill="#333333" font-family="'Helvetica Neue', Helvetica, Arial, sans-serif" dy="0.3em">Optional review document</text>
<text x="1470.0" y="692.0" font-size="8" fill="rgba(150, 150, 150, 0.6)" font-family="'Helvetica Neue', Helvetica, Arial, sans-serif" text-anchor="end">created with nf-metro v0.7.2</text>
</svg>
